<svg width="40.00000000000001" height="40.00000000000001" xmlns="http://www.w3.org/2000/svg" fill="none">

 <g>
  <title>Layer 1</title>
  <path id="svg_1" fill="#1b2639" d="m39.9449,21.4998l-7.1446,0c-6.2409,0 -11.3,5.0592 -11.3,11.3l0,7.1446c9.8499,-0.7304 17.7142,-8.5947 18.4446,-18.4446z" class="ccustom"/>
  <path id="svg_2" fill="#1b2639" d="m18.5003,39.9444l0,-7.1446c0,-6.2408 -5.0592,-11.3 -11.30004,-11.3l-7.1446,0c0.73034,9.8499 8.5947,17.7142 18.44464,18.4446z" class="ccustom"/>
  <path id="svg_3" fill="#1b2639" d="m39.9449,18.4998c-0.7304,-9.84993 -8.5947,-17.71429 -18.4446,-18.44462l0,7.14459c0,6.24083 5.0591,11.30003 11.3,11.30003l7.1446,0z" class="ccustom"/>
  <path id="svg_4" fill="#1b2639" d="m18.5003,0.05518c-9.84994,0.73033 -17.7143,8.59469 -18.44464,18.44462l7.1446,0c6.24084,0 11.30004,-5.0592 11.30004,-11.30003l0,-7.14459z" class="ccustom"/>
  <path id="svg_5" fill="#7a8da9" d="m14.17123,19.9998c2.7725,-1.3853 5.032,-3.6448 6.4172,-6.4173c1.3853,2.7725 3.6447,5.032 6.4173,6.4173c-2.7726,1.3852 -5.032,3.6447 -6.4173,6.4172c-1.3852,-2.7725 -3.6447,-5.032 -6.4172,-6.4172z" class="ccustom"/>
 </g>
</svg>